<?xml version="1.0" ?><svg data-name="Layer 2" id="Layer_2" viewBox="0 0 2010 2010" xmlns="http://www.w3.org/2000/svg" xmlns:xlink="http://www.w3.org/1999/xlink"><defs><style>.cls-1{fill:url(#linear-gradient);}.cls-2{fill:url(#linear-gradient-2);}.cls-3{fill:url(#linear-gradient-3);}</style><linearGradient gradientUnits="userSpaceOnUse" id="linear-gradient" x1="720.13" x2="2137.46" y1="1512.59" y2="-644.6"><stop offset="0" stop-color="#ffe88a"/><stop offset="1" stop-color="#ffe4c5"/></linearGradient><linearGradient gradientUnits="userSpaceOnUse" id="linear-gradient-2" x1="589.28" x2="378.81" y1="719.05" y2="1064.54"><stop offset="0" stop-color="#69bbff"/><stop offset="1" stop-color="#9de0f4"/></linearGradient><linearGradient id="linear-gradient-3" x1="429.65" x2="319.33" xlink:href="#linear-gradient-2" y1="453.75" y2="717.72"/></defs><path class="cls-1" d="M994.52,1737.27a732.18,732.18,0,0,1-649.33-393.49,75,75,0,0,1,77.46-108.93,413.41,413.41,0,0,0,60.45,4.44c109,0,211.58-42.47,288.69-119.58S891.38,940.06,891.38,831A408.14,408.14,0,0,0,681.49,474.07a75,75,0,0,1,4.92-133.53c96.89-45,200.55-67.81,308.11-67.81a732.27,732.27,0,1,1,0,1464.54Z"/><path class="cls-2" d="M546.67,693.77l35.22,64.39a26.56,26.56,0,0,0,10.56,10.56l64.39,35.22a26.56,26.56,0,0,1,0,46.6l-64.39,35.22a26.56,26.56,0,0,0-10.56,10.56l-35.22,64.39a26.56,26.56,0,0,1-46.6,0l-35.22-64.39a26.53,26.53,0,0,0-10.55-10.56l-64.4-35.22a26.56,26.56,0,0,1,0-46.6l64.4-35.22a26.53,26.53,0,0,0,10.55-10.56l35.22-64.39A26.56,26.56,0,0,1,546.67,693.77Z"/><path class="cls-3" d="M371.54,552.55l18.24,33.34a13.71,13.71,0,0,0,5.47,5.47l33.34,18.24a13.75,13.75,0,0,1,0,24.13L395.25,652a13.71,13.71,0,0,0-5.47,5.47l-18.24,33.35a13.76,13.76,0,0,1-24.13,0l-18.24-33.35A13.71,13.71,0,0,0,323.7,652l-33.34-18.24a13.75,13.75,0,0,1,0-24.13l33.34-18.24a13.71,13.71,0,0,0,5.47-5.47l18.24-33.34A13.75,13.75,0,0,1,371.54,552.55Z"/></svg>