<?xml version="1.0" ?><svg data-name="Layer 2" id="Layer_2" viewBox="0 0 2010 2010" xmlns="http://www.w3.org/2000/svg" xmlns:xlink="http://www.w3.org/1999/xlink"><defs><style>.cls-1{fill:url(#linear-gradient);}.cls-2{fill:url(#linear-gradient-2);}.cls-3{fill:url(#linear-gradient-3);}.cls-4{fill:url(#linear-gradient-4);}.cls-5{fill:url(#linear-gradient-5);}.cls-6{fill:url(#linear-gradient-6);}</style><linearGradient gradientUnits="userSpaceOnUse" id="linear-gradient" x1="366.87" x2="1210.87" y1="1964.37" y2="-290.14"><stop offset="0.06" stop-color="#ff6800"/><stop offset="1" stop-color="#fff100"/></linearGradient><linearGradient id="linear-gradient-2" x1="119.54" x2="963.54" xlink:href="#linear-gradient" y1="1871.78" y2="-382.74"/><linearGradient id="linear-gradient-3" x1="-76.38" x2="767.62" xlink:href="#linear-gradient" y1="1798.44" y2="-456.08"/><linearGradient id="linear-gradient-4" x1="-8.75" x2="835.25" xlink:href="#linear-gradient" y1="1823.76" y2="-430.76"/><linearGradient id="linear-gradient-5" x1="464.22" x2="1308.22" xlink:href="#linear-gradient" y1="2000.82" y2="-253.7"/><linearGradient gradientUnits="userSpaceOnUse" id="linear-gradient-6" x1="441.2" x2="1812.92" y1="1216.83" y2="1216.83"><stop offset="0" stop-color="#69bbff"/><stop offset="1" stop-color="#9de0f4"/></linearGradient></defs><path class="cls-1" d="M686.83,1151a69.94,69.94,0,0,1-27.9-5.8,294.67,294.67,0,1,1,406.42-212.47,70,70,0,0,1-17.89,34.48,361,361,0,0,0-73.93,115.29c-1.51,3.77-3,7.6-4.47,11.77a70,70,0,0,1-88.29,42.58c-2.61-.88-5.26-1.72-7.89-2.48l-.15-.05a228.44,228.44,0,0,0-157.24,10.54A70,70,0,0,1,686.83,1151ZM996.7,919h0Z"/><path class="cls-2" d="M679.84,510.87a75,75,0,0,1-73-58.05L589.38,377.6a75,75,0,1,1,146.11-33.93L753,418.88a75.06,75.06,0,0,1-73.12,92Z"/><path class="cls-3" d="M398.81,711.87a74.6,74.6,0,0,1-39.58-11.35l-65.54-40.84A75,75,0,1,1,373,532.37l65.54,40.83a75,75,0,0,1-39.74,138.67Z"/><path class="cls-4" d="M267,1070.19a75,75,0,0,1-16.9-148.07l75.21-17.47a75,75,0,1,1,33.94,146.11l-75.22,17.47A74.89,74.89,0,0,1,267,1070.19Z"/><path class="cls-5" d="M1020.68,567.44a75,75,0,0,1-63.59-114.67l40.84-65.54a75,75,0,1,1,127.31,79.32l-40.83,65.54A75,75,0,0,1,1020.68,567.44Z"/><path class="cls-6" d="M1310.37,1719.38h-502a367.15,367.15,0,1,1,0-734.3A370.09,370.09,0,0,1,862.29,989a502.78,502.78,0,1,1,448.08,730.36Z"/></svg>