<?xml version="1.0" ?><svg data-name="Layer 2" id="Layer_2" viewBox="0 0 2010 2010" xmlns="http://www.w3.org/2000/svg" xmlns:xlink="http://www.w3.org/1999/xlink"><defs><style>.cls-1{fill:url(#linear-gradient);}.cls-2{opacity:0.1;fill:url(#linear-gradient-2);}.cls-3{fill:url(#linear-gradient-3);}.cls-4{fill:url(#linear-gradient-4);}.cls-5{fill:url(#linear-gradient-5);}</style><linearGradient gradientUnits="userSpaceOnUse" id="linear-gradient" x1="175.12" x2="1095.8" y1="1363.9" y2="72.13"><stop offset="0.7" stop-color="#ffe88a"/><stop offset="1" stop-color="#ffe4c5"/></linearGradient><linearGradient gradientUnits="userSpaceOnUse" id="linear-gradient-2" x1="217.53" x2="792.29" y1="1563.48" y2="571.27"><stop offset="0" stop-color="#1e2121"/><stop offset="1" stop-color="#1e2121" stop-opacity="0"/></linearGradient><linearGradient gradientUnits="userSpaceOnUse" id="linear-gradient-3" x1="208.36" x2="1842.28" y1="1130.92" y2="1130.92"><stop offset="0" stop-color="#69bbff"/><stop offset="1" stop-color="#9de0f4"/></linearGradient><linearGradient gradientUnits="userSpaceOnUse" id="linear-gradient-4" x1="787.26" x2="11.8" y1="-184.38" y2="853.06"><stop offset="0.06" stop-color="#ff6800"/><stop offset="1" stop-color="#fff100"/></linearGradient><linearGradient id="linear-gradient-5" x1="665.15" x2="-110.31" xlink:href="#linear-gradient-4" y1="-275.65" y2="761.79"/></defs><path class="cls-1" d="M393.93,1110.34a74.77,74.77,0,0,1-52.51-21.45A442.4,442.4,0,0,1,208.36,772.16c0-12.73.56-25.62,1.65-38.32a75,75,0,0,1,107-61.28,170.1,170.1,0,0,0,73.76,16.6c94.67,0,171.69-77,171.69-171.7A169.77,169.77,0,0,0,544,439.89a75,75,0,0,1,58.62-108.5,449.82,449.82,0,0,1,49.23-2.71,443.72,443.72,0,0,1,425.71,318.84,75,75,0,0,1-37.31,87.55,447.87,447.87,0,0,0-214,245,75,75,0,0,1-94.51,45.72,283.47,283.47,0,0,0-285.91,63.76A74.78,74.78,0,0,1,393.93,1110.34Z"/><path class="cls-2" d="M1016.63,519.89a445.78,445.78,0,0,0-41.93-51.76c-20.22,8.29-40.18,17.55-59.3,27.54a719.31,719.31,0,0,0-270,245.4h-4A550.46,550.46,0,0,0,259.12,894.44Q246,907,233.75,920.38q4.75,13.38,10.38,26.51a441.83,441.83,0,0,0,97.29,142,75,75,0,0,0,104.35.64,283.47,283.47,0,0,1,285.91-63.76,75,75,0,0,0,94.51-45.72,447.87,447.87,0,0,1,214-245,75,75,0,0,0,37.31-87.55A441.28,441.28,0,0,0,1016.63,519.89Z"/><path class="cls-3" d="M1246.16,1727H641.35a432.86,432.86,0,0,1-346.89-692.15,437.14,437.14,0,0,1,47.62-53.75A431,431,0,0,1,641.35,861.06a435.44,435.44,0,0,1,70.28,5.68A598.85,598.85,0,0,1,970.88,602.07c16.9-8.83,34.55-17,52.42-24.18A596.25,596.25,0,1,1,1246.16,1727Z"/><path class="cls-4" d="M325.63,371.9l21.11,38.59a15.93,15.93,0,0,0,6.33,6.33l38.6,21.11a15.92,15.92,0,0,1,0,27.93L353.07,487a15.87,15.87,0,0,0-6.33,6.33l-21.11,38.59a15.92,15.92,0,0,1-27.93,0L276.59,493.3a15.84,15.84,0,0,0-6.32-6.33l-38.6-21.11a15.92,15.92,0,0,1,0-27.93l38.6-21.11a15.91,15.91,0,0,0,6.32-6.33L297.7,371.9A15.92,15.92,0,0,1,325.63,371.9Z"/><path class="cls-5" d="M220.66,287.25l10.94,20a8.17,8.17,0,0,0,3.27,3.27l20,10.94a8.24,8.24,0,0,1,0,14.46l-20,10.93a8.26,8.26,0,0,0-3.27,3.28l-10.94,20a8.24,8.24,0,0,1-14.46,0l-10.93-20a8.28,8.28,0,0,0-3.28-3.28l-20-10.93a8.24,8.24,0,0,1,0-14.46l20-10.94a8.19,8.19,0,0,0,3.28-3.27l10.93-20A8.24,8.24,0,0,1,220.66,287.25Z"/></svg>