<?xml version="1.0" ?><svg data-name="Layer 2" id="Layer_2" viewBox="0 0 2010 2010" xmlns="http://www.w3.org/2000/svg" xmlns:xlink="http://www.w3.org/1999/xlink"><defs><style>.cls-1{fill:url(#linear-gradient);}.cls-2{fill:url(#linear-gradient-2);}</style><linearGradient gradientUnits="userSpaceOnUse" id="linear-gradient" x1="1221.42" x2="476.55" y1="-330.5" y2="1521.01"><stop offset="0" stop-color="#69bbff"/><stop offset="1" stop-color="#1798ff"/></linearGradient><linearGradient gradientUnits="userSpaceOnUse" id="linear-gradient-2" x1="401.32" x2="1849.16" y1="1117.74" y2="1117.74"><stop offset="0" stop-color="#69bbff"/><stop offset="1" stop-color="#9de0f4"/></linearGradient></defs><path class="cls-1" d="M479.25,1293c-2.35,0-4.71-.11-7.1-.33a343.84,343.84,0,0,1,32.53-686.16,347.67,347.67,0,0,1,42.26,2.57,466.47,466.47,0,0,1,834.43,21.09A75,75,0,0,1,1314.25,737,381,381,0,0,0,959.93,989a75,75,0,0,1-94.51,45.72A238.23,238.23,0,0,0,553.5,1228.05,75,75,0,0,1,479.25,1293Z"/><path class="cls-2" d="M1318.39,1648.51h-529a387.81,387.81,0,0,1-388.1-388.1A388.44,388.44,0,0,1,845.57,876.35,531,531,0,0,1,1312.66,587h.33l5.4,0a530.77,530.77,0,1,1,0,1061.54Z"/></svg>