<?xml version="1.0" ?><svg data-name="Layer 2" id="Layer_2" viewBox="0 0 2010 2010" xmlns="http://www.w3.org/2000/svg" xmlns:xlink="http://www.w3.org/1999/xlink"><defs><style>.cls-1{fill:url(#linear-gradient);}.cls-2{fill:url(#linear-gradient-2);}.cls-3{fill:url(#linear-gradient-3);}.cls-4{fill:url(#linear-gradient-4);}.cls-5{opacity:0.1;fill:url(#linear-gradient-5);}.cls-6{fill:url(#linear-gradient-6);}</style><linearGradient gradientUnits="userSpaceOnUse" id="linear-gradient" x1="-29.51" x2="1052.68" y1="1310.92" y2="-49.54"><stop offset="0.7" stop-color="#ffe88a"/><stop offset="1" stop-color="#ffe4c5"/></linearGradient><linearGradient gradientUnits="userSpaceOnUse" id="linear-gradient-2" x1="1517.81" x2="137.65" y1="899.78" y2="1912.32"><stop offset="0" stop-color="#69bbff"/><stop offset="1" stop-color="#1798ff"/></linearGradient><linearGradient id="linear-gradient-3" x1="1708.95" x2="328.79" xlink:href="#linear-gradient-2" y1="1160.32" y2="2172.86"/><linearGradient id="linear-gradient-4" x1="1900.09" x2="519.93" xlink:href="#linear-gradient-2" y1="1420.86" y2="2433.4"/><linearGradient gradientUnits="userSpaceOnUse" id="linear-gradient-5" x1="352.85" x2="685.61" y1="1180.88" y2="497.22"><stop offset="0" stop-color="#1e2121"/><stop offset="1" stop-color="#1e2121" stop-opacity="0"/></linearGradient><linearGradient gradientUnits="userSpaceOnUse" id="linear-gradient-6" x1="188.04" x2="1821.96" y1="891.69" y2="891.69"><stop offset="0" stop-color="#69bbff"/><stop offset="1" stop-color="#9de0f4"/></linearGradient></defs><path class="cls-1" d="M334.2,915.59c-1.47,0-2.94,0-4.42-.13a75,75,0,0,1-60.51-37.31,485.26,485.26,0,0,1,824.19-511.54,75,75,0,0,1-34.36,111.15A447,447,0,0,0,805.87,740.82a75,75,0,0,1-94.51,45.72,284.09,284.09,0,0,0-219.1,16.2,285.71,285.71,0,0,0-98,82.77A75,75,0,0,1,334.2,915.59Z"/><path class="cls-2" d="M479.92,1784.73h0c-54.55,0-92.42-54.33-73.55-105.51L457.71,1540a23.67,23.67,0,0,1,22.21-15.49h0A23.68,23.68,0,0,1,502.14,1540l51.34,139.24C572.35,1730.4,534.48,1784.73,479.92,1784.73Z"/><path class="cls-3" d="M1026.2,1784.73h0c-54.55,0-92.43-54.33-73.56-105.51L1004,1540a23.68,23.68,0,0,1,22.22-15.49h0a23.66,23.66,0,0,1,22.21,15.49l51.34,139.24C1118.63,1730.4,1080.75,1784.73,1026.2,1784.73Z"/><path class="cls-4" d="M1572.47,1784.73h0c-54.55,0-92.42-54.33-73.55-105.51L1550.26,1540a23.67,23.67,0,0,1,22.21-15.49h0a23.68,23.68,0,0,1,22.22,15.49L1646,1679.22C1664.9,1730.4,1627,1784.73,1572.47,1784.73Z"/><path class="cls-5" d="M954.43,228.87A715.8,715.8,0,0,0,625,501.84h-4A552,552,0,0,0,207.17,688.09a484.58,484.58,0,0,0,62.1,190.06,75,75,0,0,0,60.51,37.31c1.48.09,3,.13,4.42.13a75,75,0,0,0,60.05-30.08,285.71,285.71,0,0,1,98-82.77,284.09,284.09,0,0,1,219.1-16.2,75,75,0,0,0,94.51-45.72A447,447,0,0,1,1059.1,477.76a75,75,0,0,0,34.36-111.15A486,486,0,0,0,954.43,228.87Z"/><path class="cls-6" d="M1225.84,1487.81H621A432.85,432.85,0,0,1,274.14,795.66,433.61,433.61,0,0,1,691.33,627.52a596.37,596.37,0,1,1,534.51,860.29Z"/></svg>