<?xml version="1.0" ?><svg data-name="Layer 2" id="Layer_2" viewBox="0 0 2010 2010" xmlns="http://www.w3.org/2000/svg" xmlns:xlink="http://www.w3.org/1999/xlink"><defs><style>.cls-1{fill:url(#linear-gradient);}.cls-2{fill:url(#linear-gradient-2);}.cls-3{fill:url(#linear-gradient-3);}.cls-4{fill:url(#linear-gradient-4);}.cls-5{opacity:0.1;fill:url(#linear-gradient-5);}.cls-6{fill:url(#linear-gradient-6);}</style><linearGradient gradientUnits="userSpaceOnUse" id="linear-gradient" x1="154.79" x2="1075.47" y1="1192.58" y2="-99.19"><stop offset="0.7" stop-color="#ffe88a"/><stop offset="1" stop-color="#ffe4c5"/></linearGradient><linearGradient gradientUnits="userSpaceOnUse" id="linear-gradient-2" x1="1468.66" x2="129.92" y1="939.23" y2="2010.23"><stop offset="0" stop-color="#69bbff"/><stop offset="1" stop-color="#1798ff"/></linearGradient><linearGradient id="linear-gradient-3" x1="1681.84" x2="343.1" xlink:href="#linear-gradient-2" y1="1205.71" y2="2276.7"/><linearGradient id="linear-gradient-4" x1="1895.02" x2="556.28" xlink:href="#linear-gradient-2" y1="1472.18" y2="2543.18"/><linearGradient gradientUnits="userSpaceOnUse" id="linear-gradient-5" x1="197.21" x2="771.97" y1="1392.16" y2="399.95"><stop offset="0" stop-color="#1e2121"/><stop offset="1" stop-color="#1e2121" stop-opacity="0"/></linearGradient><linearGradient gradientUnits="userSpaceOnUse" id="linear-gradient-6" x1="188.04" x2="1821.96" y1="959.6" y2="959.6"><stop offset="0" stop-color="#69bbff"/><stop offset="1" stop-color="#9de0f4"/></linearGradient></defs><path class="cls-1" d="M373.6,939a74.8,74.8,0,0,1-52.51-21.45A442.45,442.45,0,0,1,188,600.84c0-12.73.55-25.62,1.64-38.32a75,75,0,0,1,107-61.28,170.07,170.07,0,0,0,73.76,16.6c94.67,0,171.69-77,171.69-171.69a169.91,169.91,0,0,0-18.47-77.58,75,75,0,0,1,58.62-108.5,449.68,449.68,0,0,1,49.23-2.71A443.75,443.75,0,0,1,1057.23,476.2a75,75,0,0,1-37.31,87.55,447.87,447.87,0,0,0-214,245,75,75,0,0,1-94.51,45.72,283.47,283.47,0,0,0-285.91,63.76A74.79,74.79,0,0,1,373.6,939Z"/><path class="cls-2" d="M479.92,1852.64h0c-54.55,0-92.42-54.33-73.55-105.51l51.34-139.24a23.67,23.67,0,0,1,22.21-15.49h0a23.68,23.68,0,0,1,22.22,15.49l51.34,139.24C572.35,1798.31,534.48,1852.64,479.92,1852.64Z"/><path class="cls-3" d="M1026.2,1852.64h0c-54.56,0-92.43-54.33-73.56-105.51L1004,1607.89a23.68,23.68,0,0,1,22.22-15.49h0a23.67,23.67,0,0,1,22.21,15.49l51.34,139.24C1118.62,1798.31,1080.75,1852.64,1026.2,1852.64Z"/><path class="cls-4" d="M1572.47,1852.64h0c-54.55,0-92.43-54.33-73.55-105.51l51.34-139.24a23.66,23.66,0,0,1,22.21-15.49h0a23.68,23.68,0,0,1,22.22,15.49L1646,1747.13C1664.9,1798.31,1627,1852.64,1572.47,1852.64Z"/><path class="cls-5" d="M996.31,348.58a444.09,444.09,0,0,0-41.94-51.77c-20.22,8.29-40.17,17.55-59.3,27.54a719.59,719.59,0,0,0-270,245.4h-4A550.44,550.44,0,0,0,238.8,723.12q-13.1,12.51-25.37,25.94,4.74,13.38,10.38,26.51a442,442,0,0,0,97.28,142,75,75,0,0,0,104.36.64,283.47,283.47,0,0,1,285.91-63.76,75,75,0,0,0,94.51-45.72,447.87,447.87,0,0,1,214-245,75,75,0,0,0,37.31-87.55A441.1,441.1,0,0,0,996.31,348.58Z"/><path class="cls-6" d="M1225.84,1555.72H621A432.86,432.86,0,0,1,274.14,863.57a436.23,436.23,0,0,1,47.61-53.74A431,431,0,0,1,621,689.74a435.53,435.53,0,0,1,70.28,5.68A598.85,598.85,0,0,1,950.56,430.75c16.9-8.82,34.54-17,52.42-24.18a596.25,596.25,0,1,1,222.86,1149.15Z"/></svg>