<?xml version="1.0" ?><svg data-name="Layer 2" id="Layer_2" viewBox="0 0 2010 2010" xmlns="http://www.w3.org/2000/svg" xmlns:xlink="http://www.w3.org/1999/xlink"><defs><style>.cls-1{fill:url(#linear-gradient);}.cls-2{fill:url(#linear-gradient-2);}.cls-3{opacity:0.1;fill:url(#linear-gradient-3);}.cls-4{fill:url(#linear-gradient-4);}</style><linearGradient gradientUnits="userSpaceOnUse" id="linear-gradient" x1="160.83" x2="1388.46" y1="695.86" y2="695.86"><stop offset="0" stop-color="#69bbff"/><stop offset="1" stop-color="#1798ff"/></linearGradient><linearGradient gradientUnits="userSpaceOnUse" id="linear-gradient-2" x1="401.31" x2="1849.17" y1="986.36" y2="986.36"><stop offset="0" stop-color="#69bbff"/><stop offset="1" stop-color="#9de0f4"/></linearGradient><linearGradient gradientUnits="userSpaceOnUse" id="linear-gradient-3" x1="863.65" x2="1452.53" y1="1836.33" y2="1013.4"><stop offset="0" stop-color="#1e2121"/><stop offset="1" stop-color="#1e2121" stop-opacity="0"/></linearGradient><linearGradient gradientUnits="userSpaceOnUse" id="linear-gradient-4" x1="807" x2="1505.21" y1="1923.51" y2="947.79"><stop offset="0.06" stop-color="#ff6800"/><stop offset="1" stop-color="#fff100"/></linearGradient></defs><path class="cls-1" d="M479.25,1161.62c-2.35,0-4.71-.11-7.1-.34a343.84,343.84,0,0,1,32.53-686.16,347.67,347.67,0,0,1,42.26,2.58,466.48,466.48,0,0,1,834.43,21.08,75,75,0,0,1-67.12,106.82,381,381,0,0,0-354.32,252,75,75,0,0,1-94.51,45.73A238.23,238.23,0,0,0,553.5,1096.67,75,75,0,0,1,479.25,1161.62Z"/><path class="cls-2" d="M1368,1507.83c71.9,0,139.24-13.74,200.15-40.84A441.31,441.31,0,0,0,1722,1353.35c41.39-47.34,73.38-103.43,95.09-166.7,21.32-62.12,32.13-129.51,32.13-200.3A530.42,530.42,0,0,0,1318.4,455.58l-5.39,0h-.35a527.24,527.24,0,0,0-305,100.41A532.72,532.72,0,0,0,845.57,745a391.81,391.81,0,0,0-56.15-4,388.1,388.1,0,1,0,0,776.2Z"/><polygon class="cls-3" points="1343.12 1508.23 1338.45 1422.47 1140.93 1454.86 1094.72 1171.49 869.38 1515.85 1343.12 1508.23"/><path class="cls-4" d="M1094.72,1171.49,923.83,1519.66c-5.4,11,3.45,23.42,16.69,23.42h165.91c9.85,0,17.93,7.11,18.27,16.07l7.59,204.66c.65,17.61,27,22.32,35,6.24l171.21-347.58c5.36-10.88-3.24-23.21-16.34-23.44l-169.62-2.92c-9.8-.17-17.71-7.35-17.92-16.27l-4.89-201.94C1129.25,1160.16,1102.67,1155.28,1094.72,1171.49Z"/></svg>