<?xml version="1.0" ?><svg data-name="Layer 2" id="Layer_2" viewBox="0 0 2010 2010" xmlns="http://www.w3.org/2000/svg" xmlns:xlink="http://www.w3.org/1999/xlink"><defs><style>.cls-1{fill:url(#linear-gradient);}</style><linearGradient gradientUnits="userSpaceOnUse" id="linear-gradient" x1="1957.3" x2="-2742.84" y1="-627.3" y2="7416.81"><stop offset="0" stop-color="#69bbff"/><stop offset="1" stop-color="#1798ff"/></linearGradient></defs><path class="cls-1" d="M1723.36,1326.45l-95.7-55.25,79.17-21.21A75,75,0,0,0,1668,1105.1l-224.06,60L1137.57,988.24l302.7-174.76,224.06,60a75,75,0,1,0,38.82-144.88L1624,707.41l95.7-55.25a75,75,0,0,0-75-129.9L1549,577.51l21.22-79.17a75,75,0,1,0-144.89-38.82l-60,224.05L1066.71,856V543.57l164-164a75,75,0,1,0-106.07-106.07l-58,58V220.93a75,75,0,0,0-150,0V331.44l-58-58A75,75,0,1,0,752.68,379.55l164,164V860.73l-272-157-60-224.06A75,75,0,0,0,439.8,518.47L461,597.64l-95.7-55.26a75,75,0,0,0-75,129.91L386,727.54l-79.17,21.21a75,75,0,1,0,38.82,144.89l224.06-60L837.57,988.24,566.05,1145,342,1085a75,75,0,0,0-38.82,144.89l79.17,21.21-95.7,55.25a75,75,0,1,0,75,129.91l95.7-55.26-21.21,79.17A75,75,0,1,0,581,1499l60-224.06,275.66-159.15v350.67l-164,164a75,75,0,1,0,106.07,106.07l58-58v110.51a75,75,0,0,0,150,0V1678.56l58,58a75,75,0,1,0,106.07-106.07l-164-164V1120.54L1369,1295l60,224a75,75,0,1,0,144.89-38.82l-21.22-79.17,95.7,55.25a75,75,0,0,0,75-129.9Z"/></svg>