<?xml version="1.0" standalone="no"?>
<!DOCTYPE svg PUBLIC "-//W3C//DTD SVG 20010904//EN"
 "http://www.w3.org/TR/2001/REC-SVG-20010904/DTD/svg10.dtd">
<svg version="1.0" xmlns="http://www.w3.org/2000/svg"
 width="512.000000pt" height="512.000000pt" viewBox="0 0 512.000000 512.000000"
 preserveAspectRatio="xMidYMid meet">

<g transform="translate(0.000000,512.000000) scale(0.100000,-0.100000)"
fill="#000000" stroke="none">
<path d="M3310 4325 l0 -145 75 0 75 0 0 145 0 145 -75 0 -75 0 0 -145z"/>
<path d="M2680 4279 c-30 -18 -57 -33 -59 -35 -3 -3 26 -59 101 -187 l39 -68
57 32 c31 18 60 35 65 39 8 7 -124 242 -139 247 -5 2 -34 -11 -64 -28z"/>
<path d="M3957 4194 c-37 -63 -67 -120 -67 -124 0 -9 120 -84 125 -78 19 27
135 238 135 245 0 11 -101 73 -118 73 -4 0 -38 -52 -75 -116z"/>
<path d="M1755 4013 c-441 -79 -804 -388 -938 -798 -27 -81 -57 -234 -57 -286
0 -25 -5 -30 -42 -39 -91 -23 -146 -44 -221 -82 l-77 -40 22 -37 c12 -20 30
-48 40 -63 l19 -28 69 35 c80 40 189 72 277 81 l63 7 0 87 c0 391 224 747 574
914 187 90 340 122 540 114 207 -9 387 -70 548 -185 l47 -34 -34 -48 c-86
-120 -155 -312 -171 -477 l-6 -72 72 -7 c85 -9 90 -5 90 71 0 76 34 198 84
299 102 207 290 361 521 427 104 29 305 32 404 5 201 -54 364 -165 477 -322
92 -130 141 -268 151 -430 24 -397 -230 -742 -622 -846 -112 -29 -289 -29
-400 0 -291 77 -523 307 -592 586 -10 39 -18 71 -19 73 -1 1 -33 -3 -73 -10
-84 -14 -84 -14 -45 -140 103 -327 368 -576 700 -660 123 -31 352 -31 466 0
180 49 336 141 464 274 87 91 172 219 206 311 12 34 27 57 35 57 35 0 143 -34
209 -65 193 -92 341 -266 405 -475 33 -106 33 -281 1 -394 -39 -136 -94 -229
-197 -331 -72 -73 -108 -100 -181 -138 -141 -72 -219 -87 -457 -87 l-198 0 3
-77 3 -78 120 -3 c250 -6 428 24 576 98 302 150 489 435 506 770 22 422 -275
813 -694 915 l-68 17 -1 161 c-1 146 -3 171 -28 252 -105 349 -353 591 -702
687 -118 32 -355 32 -474 0 -118 -32 -250 -96 -348 -169 l-83 -62 -62 45
c-125 93 -302 166 -476 199 -104 19 -316 18 -426 -2z"/>
<path d="M4446 3755 c-60 -36 -112 -68 -116 -72 -4 -4 9 -36 29 -70 l36 -62
123 70 c67 39 122 75 122 80 0 19 -62 119 -73 118 -7 0 -61 -29 -121 -64z"/>
<path d="M4510 3055 l0 -75 145 0 145 0 0 75 0 75 -145 0 -145 0 0 -75z"/>
<path d="M226 2593 c-158 -189 -235 -405 -223 -628 18 -335 207 -618 510 -765
185 -89 266 -99 799 -100 l377 0 35 63 c19 34 38 70 41 79 7 17 -20 18 -472
18 -549 0 -560 1 -733 87 -80 39 -109 61 -186 137 -76 77 -98 106 -137 186
-64 129 -81 201 -81 335 0 194 65 359 198 503 l40 43 -56 55 -55 56 -57 -69z"/>
<path d="M1287 2138 c-92 -118 -160 -226 -193 -305 -56 -136 -31 -261 71 -351
63 -55 128 -76 220 -70 55 4 84 11 118 31 92 54 157 159 157 253 0 53 -37 154
-87 241 -52 88 -198 283 -212 283 -5 0 -38 -37 -74 -82z m195 -356 c36 -75 33
-114 -13 -167 -61 -70 -157 -69 -218 0 -56 64 -36 150 72 309 l40 59 44 -69
c25 -38 59 -97 75 -132z"/>
<path d="M2051 1394 c-241 -298 -289 -491 -160 -638 58 -66 136 -101 224 -101
114 1 203 53 262 154 37 61 43 165 15 239 l-20 52 544 0 544 0 0 80 0 80 -589
0 -588 0 -72 94 c-39 51 -77 99 -85 105 -11 9 -26 -3 -75 -65z m150 -299 c74
-127 77 -182 15 -244 -34 -34 -40 -36 -101 -36 -57 0 -67 3 -95 30 -41 39 -57
93 -42 142 6 20 39 83 73 139 l63 102 26 -36 c14 -21 42 -64 61 -97z"/>
<path d="M3612 1183 l3 -78 73 -3 72 -3 0 81 0 80 -75 0 -76 0 3 -77z"/>
</g>
</svg>
